<svg width="130" height="23" viewBox="0 0 130 23" fill="none" xmlns="http://www.w3.org/2000/svg">
<path d="M0.89 22V2.2H8.93C10.13 2.2 11.21 2.31 12.17 2.53C13.13 2.73 13.95 3.05 14.63 3.49C15.31 3.91 15.82 4.45 16.16 5.11C16.52 5.77 16.7 6.55 16.7 7.45C16.7 8.21 16.54 8.89 16.22 9.49C15.9 10.09 15.39 10.58 14.69 10.96C13.99 11.34 13.06 11.59 11.9 11.71V12.1C13.84 12.22 15.26 12.69 16.16 13.51C17.06 14.33 17.51 15.43 17.51 16.81C17.51 17.95 17.21 18.91 16.61 19.69C16.03 20.45 15.16 21.03 14 21.43C12.84 21.81 11.4 22 9.68 22H0.89ZM5.06 18.52H9.59C9.99 18.52 10.4 18.49 10.82 18.43C11.26 18.37 11.66 18.26 12.02 18.1C12.4 17.92 12.7 17.68 12.92 17.38C13.16 17.06 13.28 16.64 13.28 16.12C13.28 15.66 13.19 15.27 13.01 14.95C12.83 14.63 12.58 14.37 12.26 14.17C11.96 13.97 11.61 13.81 11.21 13.69C10.83 13.57 10.42 13.49 9.98 13.45C9.56 13.41 9.13 13.39 8.69 13.39H5.06V18.52ZM5.06 10.57H8.09C8.63 10.57 9.16 10.54 9.68 10.48C10.2 10.4 10.67 10.28 11.09 10.12C11.51 9.94 11.84 9.68 12.08 9.34C12.34 9 12.47 8.57 12.47 8.05C12.47 7.55 12.35 7.14 12.11 6.82C11.89 6.5 11.59 6.26 11.21 6.1C10.85 5.92 10.44 5.8 9.98 5.74C9.54 5.68 9.1 5.65 8.66 5.65H5.06V10.57ZM27.6589 22.42C26.3189 22.42 25.1489 22.23 24.1489 21.85C23.1489 21.47 22.3089 20.93 21.6289 20.23C20.9489 19.53 20.4389 18.69 20.0989 17.71C19.7589 16.71 19.5889 15.61 19.5889 14.41C19.5889 13.21 19.7589 12.09 20.0989 11.05C20.4389 9.99 20.9289 9.07 21.5689 8.29C22.2289 7.51 23.0389 6.91 23.9989 6.49C24.9789 6.05 26.0989 5.83 27.3589 5.83C28.5989 5.83 29.6889 6.04 30.6289 6.46C31.5689 6.86 32.3389 7.46 32.9389 8.26C33.5589 9.04 33.9989 9.99 34.2589 11.11C34.5189 12.21 34.5789 13.46 34.4389 14.86L22.3789 14.98V12.58L31.6789 12.49L30.4789 13.75C30.5989 12.73 30.5389 11.89 30.2989 11.23C30.0589 10.55 29.6889 10.05 29.1889 9.73C28.6889 9.39 28.0889 9.22 27.3889 9.22C26.6289 9.22 25.9689 9.42 25.4089 9.82C24.8689 10.22 24.4589 10.8 24.1789 11.56C23.8989 12.32 23.7589 13.23 23.7589 14.29C23.7589 15.97 24.0989 17.21 24.7789 18.01C25.4789 18.81 26.4489 19.21 27.6889 19.21C28.2489 19.21 28.7189 19.14 29.0989 19C29.4789 18.84 29.7889 18.64 30.0289 18.4C30.2689 18.14 30.4489 17.85 30.5689 17.53C30.7089 17.21 30.7989 16.88 30.8389 16.54L34.6789 17.17C34.5989 17.89 34.3989 18.57 34.0789 19.21C33.7789 19.83 33.3489 20.38 32.7889 20.86C32.2289 21.34 31.5289 21.72 30.6889 22C29.8489 22.28 28.8389 22.42 27.6589 22.42ZM44.6511 22.42C43.3111 22.42 42.1411 22.23 41.1411 21.85C40.1411 21.47 39.3011 20.93 38.6211 20.23C37.9411 19.53 37.4311 18.69 37.0911 17.71C36.7511 16.71 36.5811 15.61 36.5811 14.41C36.5811 13.21 36.7511 12.09 37.0911 11.05C37.4311 9.99 37.9211 9.07 38.5611 8.29C39.2211 7.51 40.0311 6.91 40.9911 6.49C41.9711 6.05 43.0911 5.83 44.3511 5.83C45.5911 5.83 46.6811 6.04 47.6211 6.46C48.5611 6.86 49.3311 7.46 49.9311 8.26C50.5511 9.04 50.9911 9.99 51.2511 11.11C51.5111 12.21 51.5711 13.46 51.4311 14.86L39.3711 14.98V12.58L48.6711 12.49L47.4711 13.75C47.5911 12.73 47.5311 11.89 47.2911 11.23C47.0511 10.55 46.6811 10.05 46.1811 9.73C45.6811 9.39 45.0811 9.22 44.3811 9.22C43.6211 9.22 42.9611 9.42 42.4011 9.82C41.8611 10.22 41.4511 10.8 41.1711 11.56C40.8911 12.32 40.7511 13.23 40.7511 14.29C40.7511 15.97 41.0911 17.21 41.7711 18.01C42.4711 18.81 43.4411 19.21 44.6811 19.21C45.2411 19.21 45.7111 19.14 46.0911 19C46.4711 18.84 46.7811 18.64 47.0211 18.4C47.2611 18.14 47.4411 17.85 47.5611 17.53C47.7011 17.21 47.7911 16.88 47.8311 16.54L51.6711 17.17C51.5911 17.89 51.3911 18.57 51.0711 19.21C50.7711 19.83 50.3411 20.38 49.7811 20.86C49.2211 21.34 48.5211 21.72 47.6811 22C46.8411 22.28 45.8311 22.42 44.6511 22.42ZM54.294 22V12.79V6.25H57.864L57.804 11.65H58.284C58.504 10.25 58.854 9.13 59.334 8.29C59.834 7.43 60.454 6.81 61.194 6.43C61.934 6.03 62.794 5.83 63.774 5.83C64.674 5.83 65.444 5.99 66.084 6.31C66.724 6.61 67.244 7.03 67.644 7.57C68.044 8.11 68.354 8.71 68.574 9.37C68.814 10.03 68.974 10.72 69.054 11.44C69.154 12.16 69.204 12.87 69.204 13.57V22H64.854V14.05C64.854 13.67 64.834 13.23 64.794 12.73C64.754 12.21 64.654 11.71 64.494 11.23C64.334 10.73 64.064 10.32 63.684 10C63.324 9.66 62.814 9.49 62.154 9.49C61.394 9.49 60.744 9.74 60.204 10.24C59.684 10.72 59.284 11.41 59.004 12.31C58.744 13.21 58.604 14.28 58.584 15.52V22H54.294ZM78.2509 22.36C77.3109 22.36 76.5109 22.23 75.8509 21.97C75.1909 21.71 74.6509 21.33 74.2309 20.83C73.8309 20.33 73.5409 19.73 73.3609 19.03C73.1809 18.31 73.0909 17.5 73.0909 16.6V9.64H70.9609L71.0209 6.46H72.1309C72.9109 6.42 73.4809 6.24 73.8409 5.92C74.2009 5.58 74.4209 5.05 74.5009 4.33L74.7709 2.71H77.2609V6.25H81.1609V9.76H77.2609V16.36C77.2609 17.16 77.4509 17.71 77.8309 18.01C78.2309 18.31 78.7209 18.46 79.3009 18.46C79.6409 18.46 79.9809 18.42 80.3209 18.34C80.6609 18.24 80.9709 18.1 81.2509 17.92V21.91C80.6309 22.09 80.0709 22.21 79.5709 22.27C79.0709 22.33 78.6309 22.36 78.2509 22.36ZM83.8545 22V12.79V0.76H88.1745V5.35C88.1745 5.77 88.1545 6.24 88.1145 6.76C88.0745 7.28 88.0145 7.82 87.9345 8.38C87.8745 8.94 87.8045 9.5 87.7245 10.06C87.6445 10.62 87.5645 11.14 87.4845 11.62H88.0245C88.2645 10.36 88.6045 9.3 89.0445 8.44C89.4845 7.58 90.0645 6.93 90.7845 6.49C91.5045 6.05 92.3845 5.83 93.4245 5.83C94.3645 5.83 95.1545 6 95.7945 6.34C96.4345 6.66 96.9445 7.1 97.3245 7.66C97.7245 8.2 98.0245 8.82 98.2245 9.52C98.4245 10.2 98.5645 10.91 98.6445 11.65C98.7245 12.37 98.7645 13.06 98.7645 13.72V22H94.4145V14.17C94.4145 13.53 94.3745 12.93 94.2945 12.37C94.2345 11.79 94.1045 11.29 93.9045 10.87C93.7045 10.45 93.4245 10.12 93.0645 9.88C92.7245 9.62 92.2845 9.49 91.7445 9.49C90.9845 9.49 90.3445 9.74 89.8245 10.24C89.3045 10.72 88.9045 11.41 88.6245 12.31C88.3445 13.21 88.1845 14.27 88.1445 15.49V22H83.8545ZM109.28 22.42C107.94 22.42 106.77 22.23 105.77 21.85C104.77 21.47 103.93 20.93 103.25 20.23C102.57 19.53 102.06 18.69 101.72 17.71C101.38 16.71 101.21 15.61 101.21 14.41C101.21 13.21 101.38 12.09 101.72 11.05C102.06 9.99 102.55 9.07 103.19 8.29C103.85 7.51 104.66 6.91 105.62 6.49C106.6 6.05 107.72 5.83 108.98 5.83C110.22 5.83 111.31 6.04 112.25 6.46C113.19 6.86 113.96 7.46 114.56 8.26C115.18 9.04 115.62 9.99 115.88 11.11C116.14 12.21 116.2 13.46 116.06 14.86L104 14.98V12.58L113.3 12.49L112.1 13.75C112.22 12.73 112.16 11.89 111.92 11.23C111.68 10.55 111.31 10.05 110.81 9.73C110.31 9.39 109.71 9.22 109.01 9.22C108.25 9.22 107.59 9.42 107.03 9.82C106.49 10.22 106.08 10.8 105.8 11.56C105.52 12.32 105.38 13.23 105.38 14.29C105.38 15.97 105.72 17.21 106.4 18.01C107.1 18.81 108.07 19.21 109.31 19.21C109.87 19.21 110.34 19.14 110.72 19C111.1 18.84 111.41 18.64 111.65 18.4C111.89 18.14 112.07 17.85 112.19 17.53C112.33 17.21 112.42 16.88 112.46 16.54L116.3 17.17C116.22 17.89 116.02 18.57 115.7 19.21C115.4 19.83 114.97 20.38 114.41 20.86C113.85 21.34 113.15 21.72 112.31 22C111.47 22.28 110.46 22.42 109.28 22.42ZM118.923 22V14.14V6.25H122.553L122.523 12.01H123.003C123.143 10.55 123.393 9.37 123.753 8.47C124.133 7.57 124.643 6.92 125.283 6.52C125.943 6.1 126.733 5.89 127.653 5.89C127.893 5.89 128.143 5.91 128.403 5.95C128.683 5.99 128.973 6.07 129.273 6.19L129.093 10.81C128.753 10.65 128.393 10.53 128.013 10.45C127.653 10.37 127.323 10.33 127.023 10.33C126.263 10.33 125.613 10.52 125.073 10.9C124.553 11.28 124.133 11.83 123.813 12.55C123.513 13.27 123.323 14.15 123.243 15.19V22H118.923Z" fill="black"/>
</svg>
