<svg width="20" height="20" viewBox="0 0 20 20" fill="none" xmlns="http://www.w3.org/2000/svg">
<path fill-rule="evenodd" clip-rule="evenodd" d="M10 0C4.47788 0 0 4.59027 0 10.2531C0 14.7832 2.86534 18.6265 6.83863 19.9823C7.33835 20.0772 7.52189 19.7598 7.52189 19.489C7.52189 19.2447 7.5127 18.4368 7.50836 17.5801C4.72634 18.2004 4.1393 16.3703 4.1393 16.3703C3.68436 15.1853 3.02902 14.8701 3.02902 14.8701C2.12162 14.2337 3.09741 14.2468 3.09741 14.2468C4.10147 14.3191 4.63031 15.3036 4.63031 15.3036C5.52219 16.871 6.96965 16.4177 7.54037 16.1558C7.63014 15.4932 7.88919 15.0407 8.17526 14.7847C5.9541 14.5255 3.6191 13.6463 3.6191 9.71756C3.6191 8.59824 4.00979 7.68355 4.64954 6.9655C4.54572 6.70715 4.20339 5.66438 4.74643 4.25201C4.74643 4.25201 5.5862 3.9766 7.49701 5.30314C8.29474 5.07593 9.15026 4.962 10.0001 4.95805C10.8499 4.962 11.706 5.07593 12.5051 5.30314C14.4139 3.9766 15.2524 4.25201 15.2524 4.25201C15.7967 5.66438 15.4544 6.70715 15.3506 6.9655C15.9918 7.68355 16.3797 8.5982 16.3797 9.71756C16.3797 13.6557 14.0403 14.5227 11.8135 14.7766C12.1722 15.0948 12.4917 15.7187 12.4917 16.6753C12.4917 18.0471 12.4802 19.1513 12.4802 19.489C12.4802 19.7619 12.6602 20.0817 13.167 19.981C17.1383 18.6237 20 14.7817 20 10.2531C20 4.59027 15.5227 0 10 0Z" fill="black"/>
<path d="M3.78761 14.7212C3.7656 14.7722 3.68735 14.7875 3.61617 14.7525C3.54358 14.7191 3.50299 14.6496 3.52642 14.5985C3.54793 14.546 3.62617 14.5315 3.69864 14.5665C3.77128 14.6 3.8127 14.6701 3.78761 14.7212Z" fill="black"/>
<path d="M4.19268 15.1845C4.14502 15.2297 4.05165 15.2087 3.98839 15.1371C3.9229 15.0655 3.9108 14.9699 3.9592 14.924C4.00836 14.8787 4.09879 14.8999 4.16423 14.9714C4.22976 15.0437 4.2425 15.1386 4.19268 15.1845Z" fill="black"/>
<path d="M4.58695 15.7749C4.52564 15.8187 4.42538 15.7777 4.36342 15.6865C4.30212 15.5953 4.30213 15.4859 4.36486 15.4421C4.42682 15.3983 4.52566 15.4377 4.58838 15.5282C4.64953 15.6209 4.64951 15.7303 4.58695 15.7749Z" fill="black"/>
<path d="M5.12705 16.3455C5.0722 16.4075 4.95542 16.3907 4.87007 16.3061C4.78258 16.2235 4.75832 16.1062 4.81313 16.0442C4.86879 15.9821 4.98619 15.9995 5.07219 16.0835C5.15903 16.166 5.18539 16.2841 5.12705 16.3455Z" fill="black"/>
<path d="M5.87224 16.6767C5.848 16.757 5.73564 16.7935 5.6224 16.7593C5.50921 16.7241 5.43533 16.6301 5.4581 16.549C5.48153 16.4682 5.59453 16.4302 5.70854 16.4667C5.82161 16.5016 5.89567 16.595 5.87224 16.6767Z" fill="black"/>
<path d="M6.69071 16.7381C6.69343 16.8226 6.59738 16.8928 6.47854 16.8943C6.35901 16.8971 6.26212 16.8287 6.26086 16.7454C6.26086 16.66 6.35476 16.5907 6.47433 16.5885C6.59317 16.5862 6.69071 16.6542 6.69071 16.7381Z" fill="black"/>
<path d="M7.4522 16.6053C7.46641 16.6877 7.38372 16.7724 7.26565 16.795C7.14957 16.8169 7.04222 16.7658 7.02736 16.684C7.01299 16.5995 7.09702 16.5148 7.21302 16.4929C7.33125 16.4718 7.43714 16.5213 7.4522 16.6053Z" fill="black"/>
</svg>
